HIERARCHY
ROOT Hips
{
	OFFSET 0.00000 0.00000 0.00000
	CHANNELS 6 Xposition Yposition Zposition Zrotation Yrotation Xrotation 
	JOINT LHipJoint
	{
		OFFSET 0 0 0
		CHANNELS 3 Zrotation Yrotation Xrotation
		JOINT LeftUpLeg
		{
			OFFSET 1.29432 -1.88279 0.59910
			CHANNELS 3 Zrotation Yrotation Xrotation
			JOINT LeftLeg
			{
				OFFSET 2.63039 -7.22694 0.00000
				CHANNELS 3 Zrotation Yrotation Xrotation
				JOINT LeftFoot
				{
					OFFSET 2.70674 -7.43672 0.00000
					CHANNELS 3 Zrotation Yrotation Xrotation
					JOINT LeftToeBase
					{
						OFFSET 0.15066 -0.41394 2.09027
						CHANNELS 3 Zrotation Yrotation Xrotation
						End Site
						{
							OFFSET 0.00000 -0.00000 1.07518
						}
					}
				}
			}
		}
	}
	JOINT RHipJoint
	{
		OFFSET 0 0 0
		CHANNELS 3 Zrotation Yrotation Xrotation
		JOINT RightUpLeg
		{
			OFFSET -1.37068 -1.88279 0.59910
			CHANNELS 3 Zrotation Yrotation Xrotation
			JOINT RightLeg
			{
				OFFSET -2.57023 -7.06166 0.00000
				CHANNELS 3 Zrotation Yrotation Xrotation
				JOINT RightFoot
				{
					OFFSET -2.76461 -7.59570 0.00000
					CHANNELS 3 Zrotation Yrotation Xrotation
					JOINT RightToeBase
					{
						OFFSET -0.24175 -0.64785 2.19719
						CHANNELS 3 Zrotation Yrotation Xrotation
						End Site
						{
							OFFSET -0.00000 -0.00000 1.14803
						}
					}
				}
			}
		}
	}
	JOINT LowerBack
	{
		OFFSET 0 0 0
		CHANNELS 3 Zrotation Yrotation Xrotation
		JOINT Spine
		{
			OFFSET -0.03138 2.03983 -0.23106
			CHANNELS 3 Zrotation Yrotation Xrotation
			JOINT Spine1
			{
				OFFSET -0.00325 2.06238 -0.06878
				CHANNELS 3 Zrotation Yrotation Xrotation
				JOINT Neck
				{
					OFFSET 0 0 0
					CHANNELS 3 Zrotation Yrotation Xrotation
					JOINT Neck1
					{
						OFFSET -0.00002 1.75318 0.18090
						CHANNELS 3 Zrotation Yrotation Xrotation
						JOINT Head
						{
							OFFSET 0.08806 1.75856 -0.25387
							CHANNELS 3 Zrotation Yrotation Xrotation
							End Site
							{
								OFFSET 0.02554 1.78597 -0.10684
							}
						}
					}
				}
				JOINT LeftShoulder
				{
					OFFSET 0 0 0
					CHANNELS 3 Zrotation Yrotation Xrotation
					JOINT LeftArm
					{
						OFFSET 3.09657 1.33597 -0.04414
						CHANNELS 3 Zrotation Yrotation Xrotation
						JOINT LeftForeArm
						{
							OFFSET 5.34298 -0.00000 -0.00000
							CHANNELS 3 Zrotation Yrotation Xrotation
							JOINT LeftHand
							{
								OFFSET 3.67262 -0.00000 -0.00000
								CHANNELS 3 Zrotation Yrotation Xrotation
								JOINT LeftFingerBase
								{
									OFFSET 0 0 0
									CHANNELS 3 Zrotation Yrotation Xrotation
									JOINT LeftHandIndex1
									{
										OFFSET 0.59930 -0.00000 -0.00000
										CHANNELS 3 Zrotation Yrotation Xrotation
										End Site
										{
											OFFSET 0.48317 -0.00000 -0.00000
										}
									}
								}
								JOINT LThumb
								{
									OFFSET 0 0 0
									CHANNELS 3 Zrotation Yrotation Xrotation
									End Site
									{
										OFFSET 0.49055 -0.00000 0.49055
									}
								}
							}
						}
					}
				}
				JOINT RightShoulder
				{
					OFFSET 0 0 0
					CHANNELS 3 Zrotation Yrotation Xrotation
					JOINT RightArm
					{
						OFFSET -3.16460 1.32273 -0.23382
						CHANNELS 3 Zrotation Yrotation Xrotation
						JOINT RightForeArm
						{
							OFFSET -5.54967 -0.01834 0.03348
							CHANNELS 3 Zrotation Yrotation Xrotation
							JOINT RightHand
							{
								OFFSET -3.69401 -0.00000 0.00000
								CHANNELS 3 Zrotation Yrotation Xrotation
								JOINT RightFingerBase
								{
									OFFSET 0 0 0
									CHANNELS 3 Zrotation Yrotation Xrotation
									JOINT RightHandIndex1
									{
										OFFSET -0.63811 -0.00000 0.00000
										CHANNELS 3 Zrotation Yrotation Xrotation
										End Site
										{
											OFFSET -0.51446 -0.00000 0.00000
										}
									}
								}
								JOINT RThumb
								{
									OFFSET 0 0 0
									CHANNELS 3 Zrotation Yrotation Xrotation
									End Site
									{
										OFFSET -0.52232 -0.00000 0.52232
									}
								}
							}
						}
					}
				}
			}
		}
	}
}
MOTION
Frames: 8
Frame Time: .0083333
7.4242 10.4549 11.3046 0 0 0 0 0 0 -21 0 0 0 0 0 0 0 0 0 0 0 0 0 0 21 0 0 0 0 0 0 0 0 0 0 0 0 0 0 0 0 0 0 0 0 0 0 -16 0 0 21 0 0 11 0 0 0 -8 0 0 0 0 0 0 0 0 0 0 0 0 0 0 0 0 0 0 0 0 8 0 0 0 0 0 0 0 0 0 0 0 0 0 0 0 0 0
7.4242 10.4549 11.3046 173.2290 -1.9330 161.8330 0.0000 0.0000 0.0000 0.7699 0.9051 -69.6442 18.9194 19.9720 86.8390 -0.0237 -7.4728 10.1151 0.0018 0.2740 0.7530 0.0000 0.0000 0.0000 -15.6356 5.6209 -74.1369 -20.1004 -19.9998 90.2936 -0.0927 -7.8697 7.2986 -0.1052 2.0912 -5.7577 -0.9882 7.0014 42.7462 -1.7606 0.1203 18.1664 -1.4073 -3.1957 0.0528 -4.6386 -3.8122 -14.5523 8.4738 -5.3841 -8.1736 3.3154 -3.0165 0.2514 -0.0000 0.0000 0.0000 -65.8433 -55.5901 58.8739 55.2756 -54.9136 -30.4414 -0.0000 -0.0000 26.6076 32.9589 15.8652 10.0515 -7.1250 0.0000 -0.0000 5.1558 48.6234 0.4619 -0.0000 0.0000 0.0000 74.1985 50.7801 53.1177 -64.9274 57.4860 -38.4697 0.0000 -0.0000 -1.6205 -47.2579 28.5532 -27.3486 7.1250 -0.0000 -0.0000 -9.3446 8.2860 -10.7275
7.4234 10.4567 11.3058 173.1310 -1.9779 161.8050 0.0000 0.0000 0.0000 0.6129 0.8759 -69.5961 18.9129 19.9716 86.8202 -0.0305 -7.5630 10.0892 0.0001 -0.0749 -0.2058 0.0000 0.0000 0.0000 -15.7451 5.6071 -74.0826 -20.0927 -19.9998 90.2712 -0.2392 -5.8744 9.0272 -1.0018 6.3693 -17.8599 -1.0923 7.0335 42.8448 -1.7228 0.1075 18.1487 -1.3081 -3.2154 0.0044 -4.6987 -3.8089 -14.5876 8.4343 -5.3736 -8.1949 3.3134 -3.0114 0.2497 -0.0000 -0.0000 0.0000 -65.8463 -55.4407 58.7443 55.5439 -55.0006 -30.6610 -0.0000 -0.0000 26.8238 32.5299 15.9841 9.9614 -7.1250 0.0000 -0.0000 4.7207 48.6875 0.4302 -0.0000 -0.0000 0.0000 74.0127 50.7933 53.0895 -64.9215 57.4848 -38.4648 0.0000 -0.0000 -1.6248 -47.4661 28.4681 -27.4553 7.1250 -0.0000 -0.0000 -9.4815 8.2839 -10.8885
7.4232 10.4555 11.3062 173.1550 -1.9306 161.8280 0.0000 0.0000 0.0000 0.6145 0.9568 -69.6686 18.9266 19.9724 86.8602 -0.0495 -7.7930 9.9860 0.0082 -0.5860 -1.6103 0.0000 0.0000 0.0000 -15.7250 5.6726 -74.1250 -20.0924 -19.9998 90.2703 -0.1729 -6.9176 8.2539 -0.4996 4.5315 -12.5769 -1.1072 7.0642 42.8788 -1.6707 0.1542 18.1115 -1.2590 -3.1916 -0.0456 -4.7826 -3.8099 -14.6721 8.4448 -5.3589 -8.1103 3.3313 -2.9964 0.2940 0.0000 0.0000 0.0000 -65.9464 -55.3801 58.7826 55.7909 -55.0798 -30.8635 -0.0000 -0.0000 26.6779 32.2382 16.1071 9.9244 -7.1250 0.0000 -0.0000 4.4210 48.7794 0.4129 0.0000 0.0000 0.0000 73.8865 50.7919 53.0276 -64.7872 57.4562 -38.3515 0.0000 -0.0000 -1.7185 -47.7538 28.6257 -27.8118 7.1250 -0.0000 -0.0000 -9.5921 8.6065 -11.0644
7.4230 10.4561 11.3092 173.2270 -1.9150 161.8890 0.0000 0.0000 0.0000 0.7131 0.9426 -69.7595 18.9411 19.9731 86.9027 -0.0531 -7.8344 9.9660 0.0038 0.4007 1.1009 0.0000 0.0000 0.0000 -15.6244 5.5785 -74.2214 -20.0890 -19.9998 90.2601 -0.2398 -5.9282 9.0497 -0.9917 6.3379 -17.7682 -1.0123 7.0080 42.7352 -1.7005 0.1357 18.1464 -1.3357 -3.1886 0.0332 -4.8545 -3.7945 -14.6693 8.6028 -5.3256 -8.0829 3.4018 -2.9755 0.3090 0.0000 -0.0000 0.0000 -65.9466 -55.4024 58.7555 55.8340 -55.0935 -30.8988 -0.0000 -0.0000 26.7152 32.5119 16.2665 10.1223 -7.1250 0.0000 -0.0000 4.6821 49.0094 0.4639 0.0000 -0.0000 0.0000 74.0709 50.8288 53.1616 -64.6466 57.4261 -38.2331 0.0000 -0.0000 -1.7781 -47.8964 28.9173 -28.1505 7.1250 -0.0000 -0.0000 -9.5849 9.0184 -11.1134
7.4249 10.4589 11.3112 173.3070 -1.9139 161.8770 0.0000 0.0000 0.0000 0.8028 0.9253 -69.7265 18.9467 19.9734 86.9191 -0.0498 -7.7851 9.9683 0.0040 -0.4083 -1.1219 0.0000 0.0000 0.0000 -15.4875 5.4989 -74.2136 -20.0845 -19.9998 90.2472 -0.1370 -7.3913 7.8384 -0.2319 3.0998 -8.5566 -0.9301 6.9694 42.7226 -1.6929 0.1103 18.1740 -1.3623 -3.2001 0.0689 -4.9221 -3.8201 -14.8764 8.6542 -5.3432 -7.8626 3.4254 -2.9696 0.4225 -0.0000 -0.0000 0.0000 -65.9318 -55.3713 58.6307 55.8361 -55.0942 -30.9005 -0.0000 -0.0000 27.1401 32.4787 16.3874 10.1812 -7.1250 0.0000 -0.0000 4.6397 49.1425 0.4749 -0.0000 -0.0000 0.0000 74.1735 50.8386 53.4098 -64.6197 57.4203 -38.2104 0.0000 -0.0000 -1.1723 -48.1810 27.8161 -27.5445 7.1250 -0.0000 -0.0000 -10.0546 7.8514 -11.5008
7.4266 10.4546 11.3027 173.4050 -1.8000 161.9010 0.0000 0.0000 0.0000 0.9737 1.0379 -69.7860 18.9631 19.9742 86.9671 -0.0532 -7.8377 9.9685 0.0064 -0.5152 -1.4157 0.0000 0.0000 0.0000 -15.3941 5.7179 -74.1679 -20.0805 -19.9998 90.2354 -0.2034 -6.5296 8.6250 -0.6341 5.0949 -14.1794 -0.8009 6.9610 42.7195 -1.7115 0.1491 18.1750 -1.4609 -3.1707 0.0747 -4.8146 -3.8415 -15.1234 8.5175 -5.3859 -7.6753 3.3485 -2.9844 0.5202 0.0000 0.0000 0.0000 -65.8154 -55.4182 58.5490 55.8121 -55.0866 -30.8809 -0.0000 -0.0000 27.4089 31.8979 16.3130 9.9162 -7.1250 0.0000 -0.0000 4.0650 48.9572 0.3973 0.0000 0.0000 0.0000 74.2546 50.8584 53.5223 -64.6159 57.4195 -38.2072 0.0000 -0.0000 -0.6324 -48.3710 26.6437 -26.7745 7.1250 -0.0000 -0.0000 -10.4877 6.5330 -11.8021
7.4260 10.4471 11.2926 173.4780 -1.7482 161.9610 0.0000 0.0000 0.0000 1.1111 1.0911 -69.9304 18.9875 19.9754 87.0384 -0.0618 -7.9276 9.9013 0.0149 -0.7875 -2.1644 0.0000 0.0000 0.0000 -15.4009 5.9060 -74.1535 -20.0856 -19.9998 90.2502 -0.1610 -7.1611 8.1472 -0.4230 4.1745 -11.5680 -0.4849 6.8539 42.5196 -1.9185 0.1157 18.2952 -1.8384 -3.1580 0.2691 -4.4796 -3.8380 -15.1298 8.5201 -5.4456 -7.8075 3.2835 -3.0335 0.4703 0.0000 0.0000 0.0000 -65.4932 -55.5552 58.3623 55.8326 -55.0931 -30.8977 -0.0000 -0.0000 27.5230 31.2647 16.0249 9.5149 -7.1250 0.0000 -0.0000 3.4619 48.5220 0.3011 0.0000 0.0000 0.0000 74.6349 50.9565 53.3973 -64.5489 57.4050 -38.1507 0.0000 -0.0000 -0.9161 -48.5741 27.7395 -27.8103 7.1250 -0.0000 -0.0000 -10.2896 7.9502 -11.7931
